<svg xmlns="http://www.w3.org/2000/svg" width="300" height="300" viewBox="0 0 300 300"><style type="text/css">  
	.st0{fill:#1D1D1B;}
</style><path class="st0" d="M209.5 150.3l-3.8 0.3c-0.7 0-1.6 0.3-3 0.9 -4.3 1.7-9.4 2.3-14.8 1.4 -2.3-0.3-4.3 0.1-4.4 0.9l-1.7 7 -3 4.3 -1.1 3.7c-0.9 2.9-3.1 5.4-5.4 6.4 -2.6 1-4.1 1.9-4.3 2.3l-1.9 3.8c-1.1 2.4-3.7 4.3-6 4.3 -1.3 0-2.8-0.4-4.6-1.3l-8.1-3.7c-6.1-2.8-9.7-4.6-10.4-5 -0.3-0.1-0.4-0.3-0.6-0.3 -0.3 2.1-2.4 4-4.8 4 -2.6 0-4.3-1.7-4.3-4.1 0-0.4 0.1-0.7 0.1-1H127c0 0-8.1 2.6-10.1 3.3 -2 0.9-10.1 6-10.1 6 -4.3 3.3-4.4 3.8-7.1 8.5 -0.4 0.7-1.3 1.3-2.1 1.3 -1.3 0-1.6-0.7-1.6-3.3 0-7 1.1-10.5 6.4-17.7 0.1-0.1 4.1-5 4.1-6.3 0-1.3-1.1-2.8-2.4-3.6 -3.3-1.7-3.4-1.9-6-3.8 -1.9-1.9-5.7-3.4-5.7-6.4 0-2 1.7-3.3 7.3-5.8 5-2.4 6-3.1 6-4.7 0-1.3-1.3-2.4-2.1-3.3 -1.3-2.7-3.7-5.8-5.1-8.3 -1.3-2-2.4-6.8-2.4-10 0-2 1-3.4 2.3-3.4 1.3 0 2.9 3 3.3 3.6 1.6 2.3 7 7.6 11.1 10.4 3.4 2.3 10.4 4.3 14.4 4.6 0-0.3-0.1-0.6-0.1-0.9 0-3.3 1.6-5 4.3-5 0.9 0 1.6 0.1 2.1 0.3 1.6 0.6 2.7 2.6 2.7 4.3 0 0.7-0.1 1.3-0.6 1.9 1.7-0.4 3.4-1.6 7.3-4.3 5-3.6 9.3-5.1 17.7-6.7 2.6-0.6 5.1-0.9 6.8-0.9 1 0 1.9 0.1 2.8 0.3l3.8 0.7 4-0.7c0.7-0.1 1.4-0.3 1.9-0.7l1.1-0.9c0.4-0.3 0.7-0.4 1-0.4 0.4 0 0.9 0.3 1.3 0.9 0.7 1 1.1 2.3 1.1 3.6 0 1.4-0.3 3-0.7 4.8 -0.1 1-0.3 2-0.3 2.9 0 2.4 0.7 3.3 3 3.3h0.4c1.7 0 3-0.1 4-0.1 4.8 0 14 1.3 20.1 2.7 3.4 0.7 4.8 2.3 4.8 5C215.7 148 213.2 150 209.5 150.3zM118.9 152.5c0.1-2.3 0.4-10.1 0.4-10.8 0.1-2.6 1.6-3.8-0.7-4.3 -1.6-0.4-2.4-0.7-3.7-1.3 -2.1-1-5.7-3.7-8-5.6 -2.3-1.9-4.1-3.6-4.7-4 -0.6-0.4-1.3-2.9-2.3-2.4 -0.7 0.3 0.1 1.7 0.6 3 0.3 0.9 6.1 9.4 7.3 10.3s3 3.6 3.1 4.4c0.4 2.6-4.8 4.6-6.4 5.8 -1.6 1.3-6.8 3.7-6.6 5.4 0.1 0.7 2.7 3.3 5 4.7 1.9 1.1 9.1 5.4 8.7 7.8 -0.7 3.6-9.4 13.1-10.1 14.4 -0.7 1.3-2.6 4.4-1.6 5 0.4 0.3 1-0.3 1.3-0.9 0.9-1.7 6.1-7.3 10.5-9.1 4.4-1.9 6.8-1.7 7.7-3C120.3 170.7 118.3 159 118.9 152.5zM126 141.8c0-1.1 0.1-2.1 0.6-2.9 -2.1-0.3-1.3-0.7-2.6-0.4 -2.6 0.6-1.9 31.4-0.3 32.1 1 0.4-2 1 2.6-0.7 -0.3-0.7-0.6-1.3-0.6-2.1 0-2.1 0.7-3.6 1.7-4.3 -1.6-0.6-2.4-2-2.4-3.8 0-2.8 1.1-4.4 3.1-4.8 -2.1-0.4-3.4-2-3.4-4.1 0-3.1 1.6-4.8 4.1-4.8C127.2 145.2 126 143.8 126 141.8zM129.5 148.8c-1.1 0-2.1 1-2.1 2.1 0 1.1 1 2.1 2.1 2.1s2.1-1 2.1-2.1C131.6 149.8 130.6 148.8 129.5 148.8zM129.6 157.7c-1.1 0-2 0.9-2 2s0.9 2.1 2 2.1 2.1-1 2.1-2.1S130.7 157.7 129.6 157.7zM130.5 165.9c-1.1 0-2.1 0.9-2.1 2 0 0.7 0.4 1.3 0.9 1.7 0.4 0 1 0.4 1.3 0.3 0.6 0 0.7-0.3 1.1-0.3 0.6-0.4 1-1 1-1.7C132.6 166.7 131.6 165.9 130.5 165.9zM130.6 139.9c-1.1 0-2 0.9-2 2 0 1.1 0.9 2.1 2 2.1s2.1-1 2.1-2.1C132.7 140.8 131.7 139.9 130.6 139.9zM131.3 133.1c-1.1 0-2.1 0.9-2.1 2s1 2.1 2.1 2.1 2-1 2-2.1S132.4 133.1 131.3 133.1zM205.4 142.3l-7.3-0.6 -14.1-1.4c-2.9-0.3-7.7-0.4-14.4-0.4 -5 0-8.7 0.1-11.1 0.4H158c-1.4 0-2.1-0.4-2.1-1.4 0-1.6 2.1-3 4.3-3h0.3l8.7 0.6 5.3 0.3c2.1 0.1 3.3 0.1 3.4 0.1 1.9 0 3.3-2.1 3.3-5.1 0-3.8-0.4-4.6-2.7-4.6 -1.4 0-3.1 1.6-4 3.6 -0.4 1-0.9 1.6-1.1 1.6 -0.6 0-1-0.4-1.3-1.1l-0.6-1.7 -1.9-1.4 -1.9-0.1 -2-0.3h-0.9c-1.1 0-2.7 0.3-4.8 0.7 -6.8 1.4-11.7 3.1-13.7 5.1l-2.7 2.7 -5.4 2.7c0 0-1.7 0.4-4 0.4 0.3 0.7 0.6 1.3 0.6 2 0 2.3-2.1 4.3-4.6 4.6 0.3 0 0.4 0 0.6 0 1.6 0.6 2.7 2.6 2.7 4.3 0 2.1-1.6 4-3.7 4.4 0.4 0.1 0.9 0.1 1.3 0.3 1.6 0.6 2.7 2.6 2.7 4.3 0 1.6-1 3-2.3 3.7 0.1 0.1 0.3 0.1 0.3 0.1 1.6 0.6 2.7 2.6 2.7 4.3 0 0.9-0.3 1.9-0.9 2.6 1.7 0.4 3 1 3 1 1.9 1.6 2.4 1.9 9.1 4.8 2.1 0.9 3.6 1.6 4.4 2l4.4 2.4c1.4 0.9 2.8 1.3 3.8 1.3s1.9-0.3 2.9-0.9c0.9-0.7 1.7-1.4 2.3-2.4 0.9-1.1 1.1-2 1.1-2.6 0-0.7-1-1.7-2.6-2.7 -1.3-0.7-2.4-2-2.4-2.7 0-0.7 0.6-1.4 1.3-1.4 0.6 0 1.1 0.3 1.9 0.9l2.1 2c0.6 0.6 1.4 1 2.3 1 0.7 0 1.7-0.3 3.1-1 2.6-1.1 3.8-2.7 3.8-5 0-1-0.1-1.9-0.6-2.3 -0.1 0-0.9-0.3-2.1-0.6 -1.1-0.4-2.1-1.1-2.1-1.9 0-0.6 0.6-1.1 1.1-1.1 0.3 0 0.9 0.3 2 0.7 0.3 0.1 0.9 0.1 1.3 0.1 1.4 0 3-0.6 4.4-1.9 1.3-1.1 1.9-2.1 1.9-3.3 0-0.3 0-0.6-0.1-0.9 -0.1-0.9-0.6-1.7-1.3-2.3 -0.9-0.9-1.7-1.4-2.4-1.4l-3.3-0.3c-0.6-0.1-1-0.3-1.6-0.7 -0.6-0.4-0.9-0.9-0.9-1.1 0-0.7 1-1.3 2.1-1.3h0.6l2.7 0.7c1.7 0.3 2.6 0.4 4.3 0.4 1.1 0 3 0 5.4-0.3 2.3-0.1 4.6-0.1 6.8-0.1 3.3-0.1 5.7-0.1 7.3-0.1 3.6-0.3 4.6-1.1 8-1.1 1 0-8 0-8-2.7 0-2.9 9.4-2.3 8.3-2.9C207.4 142.1 206.4 142.5 205.4 142.3zM132.3 172.6c-1.3 0-2.1 1-2.1 2.1s0.9 2.1 2.1 2.1c1.1 0 2-1 2-2.1S133.4 172.6 132.3 172.6z"/></svg>