<svg xmlns="http://www.w3.org/2000/svg" width="300" height="300" viewBox="0 0 300 300"><style type="text/css">  
	.st0{clip-path:url(#SVGID_2_);}
</style><defs><rect x="99.8" y="92.4" width="100.3" height="100.3"/></defs><clipPath><use xlink:href="#SVGID_1_"/></clipPath><path class="st0" d="M162 131.7c0 12.7-10.3 22.9-22.9 22.9s-22.9-10.3-22.9-22.9 10.3-22.9 22.9-22.9S162 119 162 131.7M194.7 174.2c-9-9-16.6-16.6-22.2-22.2 3.6-5.9 5.8-12.9 5.8-20.3 0-21.7-17.6-39.3-39.3-39.3S99.8 110 99.8 131.7c0 21.7 17.6 39.3 39.3 39.3 7.5 0 14.4-2.2 20.3-5.8l22.2 22.2C194.7 200.4 207.8 187.3 194.7 174.2"/></svg>